<svg width="10" height="10" viewBox="0 0 10 10" fill="none" xmlns="http://www.w3.org/2000/svg">
<path d="M1.808 9C1.57767 9 1.3855 8.923 1.2315 8.769C1.0775 8.615 1.00033 8.42267 1 8.192V1.808C1 1.57767 1.07717 1.3855 1.2315 1.2315C1.38583 1.0775 1.578 1.00033 1.808 1H8.1925C8.4225 1 8.61467 1.07717 8.769 1.2315C8.92333 1.38583 9.00033 1.578 9 1.808V8.1925C9 8.4225 8.923 8.61467 8.769 8.769C8.615 8.92333 8.42267 9.00033 8.192 9H1.808ZM1.5 6.66667H5H8.5V1.808C8.5 1.731 8.468 1.66033 8.404 1.596C8.34 1.53167 8.26933 1.49967 8.192 1.5H1.808C1.731 1.5 1.66033 1.532 1.596 1.596C1.53167 1.66 1.49967 1.73067 1.5 1.808V6.66667Z" fill="currentColor" stroke="currentColor"/>
</svg>
