<svg width="12" height="12" viewBox="0 0 12 12" fill="none" xmlns="http://www.w3.org/2000/svg">
<path fill-rule="evenodd" clip-rule="evenodd" d="M10.5 2C10.5 1.86739 10.4473 1.74021 10.3536 1.64645C10.2598 1.55268 10.1326 1.5 10 1.5H7.5C7.36739 1.5 7.24021 1.55268 7.14645 1.64645C7.05268 1.74021 7 1.86739 7 2C7 2.13261 7.05268 2.25979 7.14645 2.35355C7.24021 2.44732 7.36739 2.5 7.5 2.5H8.793L7.738 3.555C8.01165 3.74932 8.2508 3.98812 8.4455 4.2615L9.5 3.207V4.5C9.5 4.63261 9.55268 4.75979 9.64645 4.85355C9.74021 4.94732 9.86739 5 10 5C10.1326 5 10.2598 4.94732 10.3536 4.85355C10.4473 4.75979 10.5 4.63261 10.5 4.5V2ZM7.7385 3.555C7.2311 3.19314 6.62321 2.99908 6 3H2.5C2.23478 3 1.98043 3.10536 1.79289 3.29289C1.60536 3.48043 1.5 3.73478 1.5 4V9.5C1.5 9.76522 1.60536 10.0196 1.79289 10.2071C1.98043 10.3946 2.23478 10.5 2.5 10.5H8C8.26522 10.5 8.51957 10.3946 8.70711 10.2071C8.89464 10.0196 9 9.76522 9 9.5V6C9 5.352 8.795 4.752 8.445 4.2615L5.3535 7.3535C5.2592 7.44458 5.1329 7.49498 5.0018 7.49384C4.8707 7.4927 4.74529 7.44011 4.65259 7.34741C4.55989 7.25471 4.5073 7.1293 4.50616 6.9982C4.50502 6.8671 4.55542 6.7408 4.6465 6.6465L7.7385 3.555Z" fill="black"/>
</svg>
