<svg width="10" height="11" viewBox="0 0 10 11" fill="none" xmlns="http://www.w3.org/2000/svg">
<path d="M10 9.85205C10 9.9994 9.94147 10.1407 9.83728 10.2449C9.7331 10.3491 9.59179 10.4076 9.44444 10.4076H0.555556C0.408213 10.4076 0.266905 10.3491 0.162719 10.2449C0.0585317 10.1407 1.33728e-07 9.9994 1.33728e-07 9.85205V4.01316C-5.8602e-05 3.9285 0.0192318 3.84495 0.0563978 3.76889C0.0935638 3.69282 0.147622 3.62626 0.214445 3.57427L4.65889 0.117052C4.75641 0.0411886 4.87644 0 5 0C5.12356 0 5.24359 0.0411886 5.34111 0.117052L9.78556 3.57427C9.85238 3.62626 9.90644 3.69282 9.9436 3.76889C9.98077 3.84495 10.0001 3.9285 10 4.01316V9.85205Z" fill="#111111"/>
</svg>
