<svg width="10" height="10" viewBox="0 0 10 10" fill="none" xmlns="http://www.w3.org/2000/svg">
<path fill-rule="evenodd" clip-rule="evenodd" d="M9.5 1C9.5 0.867392 9.44732 0.740215 9.35355 0.646447C9.25979 0.552678 9.13261 0.5 9 0.5H6.5C6.36739 0.5 6.24021 0.552678 6.14645 0.646447C6.05268 0.740215 6 0.867392 6 1C6 1.13261 6.05268 1.25979 6.14645 1.35355C6.24021 1.44732 6.36739 1.5 6.5 1.5H7.793L6.738 2.555C7.01165 2.74932 7.2508 2.98812 7.4455 3.2615L8.5 2.207V3.5C8.5 3.63261 8.55268 3.75979 8.64645 3.85355C8.74021 3.94732 8.86739 4 9 4C9.13261 4 9.25979 3.94732 9.35355 3.85355C9.44732 3.75979 9.5 3.63261 9.5 3.5V1ZM6.7385 2.555C6.2311 2.19314 5.62321 1.99908 5 2H1.5C1.23478 2 0.98043 2.10536 0.792893 2.29289C0.605357 2.48043 0.5 2.73478 0.5 3V8.5C0.5 8.76522 0.605357 9.01957 0.792893 9.20711C0.98043 9.39464 1.23478 9.5 1.5 9.5H7C7.26522 9.5 7.51957 9.39464 7.70711 9.20711C7.89464 9.01957 8 8.76522 8 8.5V5C8 4.352 7.795 3.752 7.445 3.2615L4.3535 6.3535C4.2592 6.44458 4.1329 6.49498 4.0018 6.49384C3.8707 6.4927 3.74529 6.44011 3.65259 6.34741C3.55989 6.25471 3.5073 6.1293 3.50616 5.9982C3.50502 5.8671 3.55542 5.7408 3.6465 5.6465L6.7385 2.555Z" fill="black"/>
</svg>
