<svg width="31" height="28" viewBox="0 0 31 28" fill="none" xmlns="http://www.w3.org/2000/svg">
<path d="M0.656 25V15.032H1.536L4 19.912L6.512 15.016H7.36V25H6.304V17.48L4.144 21.496H3.712L1.696 17.528V25H0.656ZM8.304 25V15.016H14.416V16.008H9.36V19.288H13.536V20.312H9.36V24.008H14.368V25H8.304ZM15.52 15.032H16.608L20.8 22.424V15.032H21.856H22.016V15.144C21.952 15.208 21.9093 15.2773 21.888 15.352C21.8773 15.4267 21.872 15.5547 21.872 15.736V25H20.992L16.592 17.16V25H15.52V15.032ZM26.096 25.176C25.0293 25.176 24.224 24.8613 23.68 24.232C23.1467 23.592 22.88 22.7013 22.88 21.56V15.032H23.968H24.128V15.144C24.064 15.208 24.0213 15.2773 24 15.352C23.9893 15.4267 23.984 15.5547 23.984 15.736V21.576C23.984 22.3867 24.1387 23.032 24.448 23.512C24.768 23.992 25.3227 24.232 26.112 24.232C26.912 24.232 27.472 23.992 27.792 23.512C28.112 23.032 28.272 22.3707 28.272 21.528V15.032H29.344V21.512C29.344 22.3547 29.2107 23.048 28.944 23.592C28.6773 24.1253 28.2987 24.5253 27.808 24.792C27.328 25.048 26.7573 25.176 26.096 25.176Z" fill="#0249FF"/>
<path d="M11.2071 5C10.7617 5 10.5386 4.46143 10.8536 4.14645L14.2929 0.707106C14.6834 0.316582 15.3166 0.316583 15.7071 0.707107L19.1464 4.14645C19.4614 4.46143 19.2383 5 18.7929 5H11.2071Z" fill="#0249FF"/>
</svg>
