<svg width="38" height="29" viewBox="0 0 38 29" fill="none" xmlns="http://www.w3.org/2000/svg">
<path d="M4.56 26.16C4.016 26.16 3.50933 26.064 3.04 25.872C2.57067 25.6693 2.15467 25.36 1.792 24.944C1.44 24.528 1.16267 24 0.96 23.36C0.757333 22.72 0.656 21.9573 0.656 21.072C0.656 20.2933 0.730667 19.616 0.88 19.04C1.02933 18.4533 1.232 17.9627 1.488 17.568C1.744 17.1733 2.03733 16.8587 2.368 16.624C2.69867 16.3893 3.04533 16.2187 3.408 16.112C3.77067 16.0053 4.13333 15.952 4.496 15.952C5.22133 15.952 5.84 16.1333 6.352 16.496C6.864 16.848 7.248 17.3227 7.504 17.92L6.544 18.368L6.4 18.432L6.352 18.32C6.384 18.2347 6.384 18.16 6.352 18.096C6.32 18.0213 6.26133 17.9093 6.176 17.76C5.90933 17.3973 5.632 17.1573 5.344 17.04C5.06667 16.912 4.77333 16.848 4.464 16.848C4.048 16.848 3.66933 16.944 3.328 17.136C2.99733 17.3173 2.70933 17.5893 2.464 17.952C2.22933 18.304 2.048 18.736 1.92 19.248C1.80267 19.76 1.744 20.3413 1.744 20.992C1.744 21.6213 1.81333 22.192 1.952 22.704C2.10133 23.216 2.29867 23.6587 2.544 24.032C2.8 24.4053 3.09333 24.6933 3.424 24.896C3.76533 25.0987 4.128 25.2 4.512 25.2C4.77867 25.2 5.03467 25.152 5.28 25.056C5.536 24.96 5.77067 24.8213 5.984 24.64C6.19733 24.448 6.37867 24.2293 6.528 23.984L7.36 24.528C7.04 25.0613 6.656 25.4667 6.208 25.744C5.76 26.0213 5.21067 26.16 4.56 26.16ZM8.416 16.032H9.568H9.728V16.144C9.664 16.208 9.62133 16.2773 9.6 16.352C9.58933 16.4267 9.584 16.5547 9.584 16.736V25.04H14.384V26H8.416V16.032ZM18.72 26.176C17.9627 26.176 17.3173 25.9787 16.784 25.584C16.2507 25.1893 15.8453 24.6133 15.568 23.856C15.2907 23.088 15.152 22.16 15.152 21.072C15.152 20.016 15.2907 19.1093 15.568 18.352C15.8453 17.584 16.2507 16.9973 16.784 16.592C17.3173 16.176 17.9627 15.968 18.72 15.968C19.488 15.968 20.1333 16.176 20.656 16.592C21.1893 16.9973 21.5947 17.584 21.872 18.352C22.1493 19.1093 22.288 20.016 22.288 21.072C22.288 22.16 22.1493 23.088 21.872 23.856C21.5947 24.6133 21.1893 25.1893 20.656 25.584C20.1333 25.9787 19.488 26.176 18.72 26.176ZM18.72 25.2C19.232 25.2 19.664 25.04 20.016 24.72C20.3787 24.4 20.656 23.936 20.848 23.328C21.04 22.7093 21.136 21.9573 21.136 21.072C21.136 20.2293 21.04 19.504 20.848 18.896C20.656 18.2773 20.3787 17.7973 20.016 17.456C19.664 17.1147 19.232 16.944 18.72 16.944C18.2187 16.944 17.7867 17.1147 17.424 17.456C17.0613 17.7973 16.784 18.2773 16.592 18.896C16.4 19.504 16.304 20.2293 16.304 21.072C16.304 21.9573 16.4 22.7093 16.592 23.328C16.784 23.936 17.0613 24.4 17.424 24.72C17.7867 25.04 18.2187 25.2 18.72 25.2ZM26.032 26.16C25.3813 26.16 24.7947 26.0533 24.272 25.84C23.76 25.6267 23.3067 25.312 22.912 24.896L23.488 23.888L23.552 23.744L23.664 23.808C23.6853 23.8827 23.712 23.968 23.744 24.064C23.776 24.1493 23.8507 24.256 23.968 24.384C24.2453 24.6187 24.5653 24.8053 24.928 24.944C25.3013 25.0827 25.7227 25.152 26.192 25.152C26.4907 25.152 26.7627 25.1093 27.008 25.024C27.264 24.928 27.4827 24.8053 27.664 24.656C27.856 24.496 28 24.3147 28.096 24.112C28.2027 23.8987 28.256 23.6747 28.256 23.44C28.256 23.2587 28.2347 23.0933 28.192 22.944C28.16 22.7947 28.0907 22.6613 27.984 22.544C27.888 22.416 27.7547 22.2933 27.584 22.176C27.4133 22.048 27.1947 21.9147 26.928 21.776C26.6613 21.6373 26.3413 21.488 25.968 21.328C25.2747 21.0613 24.7253 20.7733 24.32 20.464C23.9253 20.144 23.6427 19.808 23.472 19.456C23.312 19.104 23.232 18.7413 23.232 18.368C23.232 17.8773 23.3547 17.4507 23.6 17.088C23.8453 16.7147 24.192 16.4267 24.64 16.224C25.0987 16.0107 25.6427 15.904 26.272 15.904C26.6347 15.904 26.9813 15.9573 27.312 16.064C27.6533 16.16 27.968 16.2987 28.256 16.48C28.5547 16.6613 28.816 16.8853 29.04 17.152L28.416 17.984L28.32 18.112L28.224 18.048C28.2133 17.9627 28.192 17.8773 28.16 17.792C28.128 17.7067 28.0533 17.6 27.936 17.472C27.68 17.2267 27.408 17.0613 27.12 16.976C26.832 16.88 26.4907 16.832 26.096 16.832C25.8293 16.832 25.5893 16.8693 25.376 16.944C25.1733 17.0187 24.9973 17.1253 24.848 17.264C24.6987 17.4027 24.5813 17.5627 24.496 17.744C24.4213 17.9147 24.384 18.096 24.384 18.288C24.384 18.4693 24.4053 18.6347 24.448 18.784C24.4907 18.9333 24.5653 19.0773 24.672 19.216C24.7787 19.3547 24.9227 19.4933 25.104 19.632C25.296 19.7707 25.5307 19.9093 25.808 20.048C26.096 20.1867 26.4427 20.336 26.848 20.496C27.3387 20.6987 27.744 20.9013 28.064 21.104C28.3947 21.296 28.6507 21.504 28.832 21.728C29.024 21.9413 29.1573 22.176 29.232 22.432C29.3173 22.688 29.36 22.9707 29.36 23.28C29.36 23.7387 29.2427 24.192 29.008 24.64C28.784 25.0773 28.4267 25.44 27.936 25.728C27.4453 26.016 26.8107 26.16 26.032 26.16ZM30.384 26V16.016H36.496V17.008H31.44V20.288H35.616V21.312H31.44V25.008H36.448V26H30.384Z" fill="#0249FF"/>
<path d="M21.8671 1.13745C21.825 1.09526 21.775 1.06179 21.7199 1.03895C21.6649 1.01611 21.6059 1.00436 21.5463 1.00436C21.4867 1.00436 21.4276 1.01611 21.3726 1.03895C21.3175 1.06179 21.2675 1.09526 21.2254 1.13745L19 3.35832L16.7746 1.1329C16.7324 1.09076 16.6824 1.05734 16.6274 1.03454C16.5723 1.01174 16.5133 1 16.4537 1C16.3942 1 16.3352 1.01174 16.2801 1.03454C16.2251 1.05734 16.175 1.09076 16.1329 1.1329C16.0908 1.17503 16.0573 1.22505 16.0345 1.2801C16.0117 1.33515 16 1.39415 16 1.45374C16 1.51333 16.0117 1.57233 16.0345 1.62738C16.0573 1.68243 16.0908 1.73245 16.1329 1.77458L18.3583 4L16.1329 6.22542C16.0908 6.26755 16.0573 6.31757 16.0345 6.37262C16.0117 6.42767 16 6.48667 16 6.54626C16 6.60585 16.0117 6.66485 16.0345 6.7199C16.0573 6.77495 16.0908 6.82497 16.1329 6.8671C16.175 6.90924 16.2251 6.94266 16.2801 6.96546C16.3352 6.98826 16.3942 7 16.4537 7C16.5133 7 16.5723 6.98826 16.6274 6.96546C16.6824 6.94266 16.7324 6.90924 16.7746 6.8671L19 4.64169L21.2254 6.8671C21.2676 6.90924 21.3176 6.94266 21.3726 6.96546C21.4277 6.98826 21.4867 7 21.5463 7C21.6058 7 21.6648 6.98826 21.7199 6.96546C21.7749 6.94266 21.825 6.90924 21.8671 6.8671C21.9092 6.82497 21.9427 6.77495 21.9655 6.7199C21.9883 6.66485 22 6.60585 22 6.54626C22 6.48667 21.9883 6.42767 21.9655 6.37262C21.9427 6.31757 21.9092 6.26755 21.8671 6.22542L19.6417 4L21.8671 1.77458C22.04 1.60165 22.04 1.31038 21.8671 1.13745Z" fill="#0249FF" stroke="#0249FF"/>
</svg>
