<svg width="12" height="9" viewBox="0 0 12 9" fill="none" xmlns="http://www.w3.org/2000/svg">
<path d="M2.74732 0.126003C4.68035 -0.0420009 6.62431 -0.0420009 8.55734 0.126003L9.48929 0.206184C9.78812 0.232198 10.0755 0.33323 10.3249 0.499917C10.5743 0.666603 10.7776 0.893549 10.9159 1.15972C10.9321 1.19256 10.9353 1.23028 10.9249 1.26537C10.9144 1.30046 10.8912 1.33034 10.8598 1.34907L6.99505 3.74215C6.5883 3.99398 6.12039 4.12969 5.64202 4.13459C5.16365 4.13948 4.69306 4.01336 4.28124 3.76991L0.39124 1.47057C0.360577 1.45324 0.337241 1.42537 0.32556 1.39214C0.313878 1.35891 0.314642 1.32257 0.327712 1.28986C0.453712 0.990966 0.658907 0.732138 0.921175 0.541279C1.18344 0.35042 1.49283 0.234771 1.81599 0.2068L2.74732 0.126003Z" fill="black"/>
<path d="M0.324647 2.50616C0.302609 2.4931 0.277644 2.48579 0.252044 2.48489C0.226445 2.48399 0.201029 2.48954 0.17813 2.50102C0.155232 2.5125 0.135582 2.52954 0.120986 2.55059C0.10639 2.57164 0.0973133 2.59602 0.0945898 2.62149C-0.0621173 4.17442 -0.0239926 5.74085 0.208076 7.28431C0.267804 7.67979 0.458891 8.04365 0.750568 8.31731C1.04224 8.59098 1.41754 8.75851 1.81601 8.79294L2.74734 8.87374C4.68093 9.04212 6.625 9.04212 8.55859 8.87374L9.48993 8.79356C9.88856 8.75891 10.2639 8.59105 10.5555 8.31703C10.8471 8.04301 11.0379 7.67879 11.0972 7.28308C11.3361 5.69466 11.3694 4.08212 11.1965 2.48519C11.1936 2.45961 11.1842 2.4352 11.1692 2.41423C11.1543 2.39325 11.1343 2.37638 11.1111 2.36519C11.0879 2.35399 11.0623 2.34883 11.0366 2.35019C11.0109 2.35154 10.9859 2.35936 10.964 2.37293L7.48232 4.52794C6.93215 4.86843 6.29932 5.05192 5.65235 5.05855C5.00538 5.06519 4.36893 4.8947 3.81189 4.56557L0.324647 2.50616Z" fill="black"/>
</svg>
