<svg width="71" height="71" viewBox="0 0 71 71" fill="none" xmlns="http://www.w3.org/2000/svg">
<rect x="0.5" y="0.5" width="70" height="69.9973" rx="9.4162" fill="url(#paint0_linear_1624_1137)"/>
<rect x="0.5" y="0.5" width="70" height="69.9973" rx="9.4162" stroke="#111111"/>
<rect x="0.5" y="0.5" width="70" height="69.9973" rx="9.4162" stroke="#0249FF"/>
<path d="M14.1801 26.2427C16.0803 26.2427 17.7407 26.6193 19.1615 27.3725C20.5824 28.1257 21.6779 29.1871 22.4482 30.5565C23.2357 31.9088 23.6294 33.4752 23.6294 35.2555C23.6294 37.0186 23.2357 38.5849 22.4482 39.9544C21.6779 41.3239 20.5738 42.3852 19.1359 43.1384C17.7151 43.8916 16.0631 44.2682 14.1801 44.2682H7.42701V26.2427H14.1801ZM13.8977 40.4679C15.5582 40.4679 16.8506 40.0143 17.775 39.1071C18.6993 38.1998 19.1615 36.9159 19.1615 35.2555C19.1615 33.595 18.6993 32.3026 17.775 31.3782C16.8506 30.4538 15.5582 29.9916 13.8977 29.9916H11.8178V40.4679H13.8977ZM33.5809 44.4479C31.8862 44.4479 30.3285 44.0542 28.9077 43.2668C27.504 42.4793 26.3827 41.3838 25.544 39.9801C24.7223 38.5593 24.3114 36.9673 24.3114 35.2041C24.3114 33.4409 24.7223 31.8575 25.544 30.4538C26.3827 29.0501 27.504 27.9545 28.9077 27.1671C30.3285 26.3797 31.8862 25.986 33.5809 25.986C35.2756 25.986 36.8248 26.3797 38.2285 27.1671C39.6493 27.9545 40.762 29.0501 41.5666 30.4538C42.3883 31.8575 42.7991 33.4409 42.7991 35.2041C42.7991 36.9673 42.3883 38.5593 41.5666 39.9801C40.7449 41.3838 39.6322 42.4793 38.2285 43.2668C36.8248 44.0542 35.2756 44.4479 33.5809 44.4479ZM33.5809 40.4423C35.0189 40.4423 36.1658 39.963 37.0217 39.0043C37.8947 38.0457 38.3312 36.779 38.3312 35.2041C38.3312 33.6121 37.8947 32.3454 37.0217 31.4039C36.1658 30.4452 35.0189 29.9659 33.5809 29.9659C32.1259 29.9659 30.9619 30.4367 30.0888 31.3782C29.2329 32.3197 28.805 33.595 28.805 35.2041C28.805 36.7961 29.2329 38.0714 30.0888 39.03C30.9619 39.9715 32.1259 40.4423 33.5809 40.4423ZM48.6056 26.2427V44.2682H44.2148V26.2427H48.6056ZM63.7275 26.2427V29.7605H58.9515V44.2682H54.5607V29.7605H49.7847V26.2427H63.7275Z" fill="#111111"/>
<defs>
<linearGradient id="paint0_linear_1624_1137" x1="0" y1="0" x2="70.9973" y2="71" gradientUnits="userSpaceOnUse">
<stop offset="1" stop-color="#E8E8E8"/>
<stop stop-color="white"/>
</linearGradient>
</defs>
</svg>
